<?xml version="1.0" encoding="UTF-8"?>
<!--Generator: Apple Native CoreSVG 149-->
<!DOCTYPE svg
PUBLIC "-//W3C//DTD SVG 1.1//EN"
       "http://www.w3.org/Graphics/SVG/1.1/DTD/svg11.dtd">
<svg version="1.1" xmlns="http://www.w3.org/2000/svg" xmlns:xlink="http://www.w3.org/1999/xlink" width="3300" height="2200">
 <!--glyph: "uni10044D.medium", point size: 100.000000, font version: "Version 16.0d12e3", template writer version: "8"-->
 <g id="Notes">
  <rect height="2200" id="artboard" style="fill:white;opacity:1" width="3300" x="0" y="0"/>
  <line id="" style="fill:none;stroke:black;opacity:1;stroke-width:0.5;" x1="263" x2="3036" y1="292" y2="292"/>
  <text style="stroke:none;fill:black;font-family:-apple-system,&quot;SF Pro Display&quot;,&quot;SF Pro Text&quot;,Helvetica,sans-serif;font-weight:bold;" transform="matrix(1 0 0 1 263 322)">Weight/Scale Variations</text>
  <text style="stroke:none;fill:black;font-family:-apple-system,&quot;SF Pro Display&quot;,&quot;SF Pro Text&quot;,Helvetica,sans-serif;text-anchor:middle;" transform="matrix(1 0 0 1 559.711 322)">Ultralight</text>
  <text style="stroke:none;fill:black;font-family:-apple-system,&quot;SF Pro Display&quot;,&quot;SF Pro Text&quot;,Helvetica,sans-serif;text-anchor:middle;" transform="matrix(1 0 0 1 856.422 322)">Thin</text>
  <text style="stroke:none;fill:black;font-family:-apple-system,&quot;SF Pro Display&quot;,&quot;SF Pro Text&quot;,Helvetica,sans-serif;text-anchor:middle;" transform="matrix(1 0 0 1 1153.13 322)">Light</text>
  <text style="stroke:none;fill:black;font-family:-apple-system,&quot;SF Pro Display&quot;,&quot;SF Pro Text&quot;,Helvetica,sans-serif;text-anchor:middle;" transform="matrix(1 0 0 1 1449.84 322)">Regular</text>
  <text style="stroke:none;fill:black;font-family:-apple-system,&quot;SF Pro Display&quot;,&quot;SF Pro Text&quot;,Helvetica,sans-serif;text-anchor:middle;" transform="matrix(1 0 0 1 1746.56 322)">Medium</text>
  <text style="stroke:none;fill:black;font-family:-apple-system,&quot;SF Pro Display&quot;,&quot;SF Pro Text&quot;,Helvetica,sans-serif;text-anchor:middle;" transform="matrix(1 0 0 1 2043.27 322)">Semibold</text>
  <text style="stroke:none;fill:black;font-family:-apple-system,&quot;SF Pro Display&quot;,&quot;SF Pro Text&quot;,Helvetica,sans-serif;text-anchor:middle;" transform="matrix(1 0 0 1 2339.98 322)">Bold</text>
  <text style="stroke:none;fill:black;font-family:-apple-system,&quot;SF Pro Display&quot;,&quot;SF Pro Text&quot;,Helvetica,sans-serif;text-anchor:middle;" transform="matrix(1 0 0 1 2636.69 322)">Heavy</text>
  <text style="stroke:none;fill:black;font-family:-apple-system,&quot;SF Pro Display&quot;,&quot;SF Pro Text&quot;,Helvetica,sans-serif;text-anchor:middle;" transform="matrix(1 0 0 1 2933.4 322)">Black</text>
  <line id="" style="fill:none;stroke:black;opacity:1;stroke-width:0.5;" x1="263" x2="3036" y1="1903" y2="1903"/>
  <g id="" transform="matrix(1 0 0 1 263 1933)">
   <path d="M9.24805 0.830078C13.5547 0.830078 17.1387-2.74414 17.1387-7.05078C17.1387-11.3574 13.5449-14.9316 9.23828-14.9316C4.94141-14.9316 1.36719-11.3574 1.36719-7.05078C1.36719-2.74414 4.95117 0.830078 9.24805 0.830078ZM9.24805-0.654297C5.70312-0.654297 2.87109-3.49609 2.87109-7.05078C2.87109-10.6055 5.69336-13.4473 9.23828-13.4473C12.793-13.4473 15.6348-10.6055 15.6445-7.05078C15.6543-3.49609 12.8027-0.654297 9.24805-0.654297ZM9.22852-3.62305C9.69727-3.62305 9.9707-3.93555 9.9707-4.45312L9.9707-6.31836L12.002-6.31836C12.5-6.31836 12.832-6.57227 12.832-7.04102C12.832-7.51953 12.5195-7.7832 12.002-7.7832L9.9707-7.7832L9.9707-9.81445C9.9707-10.332 9.69727-10.6543 9.22852-10.6543C8.75977-10.6543 8.50586-10.3125 8.50586-9.81445L8.50586-7.7832L6.49414-7.7832C5.97656-7.7832 5.64453-7.51953 5.64453-7.04102C5.64453-6.57227 5.99609-6.31836 6.49414-6.31836L8.50586-6.31836L8.50586-4.45312C8.50586-3.95508 8.75977-3.62305 9.22852-3.62305Z"/>
  </g>
  <g id="" transform="matrix(1 0 0 1 281.506 1933)">
   <path d="M11.709 2.91016C17.1582 2.91016 21.6699-1.61133 21.6699-7.05078C21.6699-12.5 17.1484-17.0117 11.6992-17.0117C6.25977-17.0117 1.74805-12.5 1.74805-7.05078C1.74805-1.61133 6.26953 2.91016 11.709 2.91016ZM11.709 1.25C7.09961 1.25 3.41797-2.44141 3.41797-7.05078C3.41797-11.6602 7.08984-15.3516 11.6992-15.3516C16.3086-15.3516 20-11.6602 20.0098-7.05078C20.0195-2.44141 16.3184 1.25 11.709 1.25ZM11.6797-2.66602C12.207-2.66602 12.5098-3.01758 12.5098-3.59375L12.5098-6.23047L15.3223-6.23047C15.8691-6.23047 16.25-6.51367 16.25-7.03125C16.25-7.55859 15.8887-7.86133 15.3223-7.86133L12.5098-7.86133L12.5098-10.6836C12.5098-11.25 12.207-11.6113 11.6797-11.6113C11.1621-11.6113 10.8789-11.2305 10.8789-10.6836L10.8789-7.86133L8.07617-7.86133C7.50977-7.86133 7.13867-7.55859 7.13867-7.03125C7.13867-6.51367 7.5293-6.23047 8.07617-6.23047L10.8789-6.23047L10.8789-3.59375C10.8789-3.03711 11.1621-2.66602 11.6797-2.66602Z"/>
  </g>
  <g id="" transform="matrix(1 0 0 1 304.924 1933)">
   <path d="M14.9707 5.66406C21.9336 5.66406 27.6953-0.0976562 27.6953-7.05078C27.6953-14.0137 21.9238-19.7754 14.9609-19.7754C8.00781-19.7754 2.25586-14.0137 2.25586-7.05078C2.25586-0.0976562 8.01758 5.66406 14.9707 5.66406ZM14.9707 3.84766C8.93555 3.84766 4.08203-1.01562 4.08203-7.05078C4.08203-13.0957 8.92578-17.9492 14.9609-17.9492C21.0059-17.9492 25.8594-13.0957 25.8691-7.05078C25.8789-1.01562 21.0156 3.84766 14.9707 3.84766ZM14.9414-1.38672C15.5176-1.38672 15.8594-1.77734 15.8594-2.38281L15.8594-6.13281L19.7754-6.13281C20.3711-6.13281 20.7812-6.46484 20.7812-7.02148C20.7812-7.59766 20.3906-7.93945 19.7754-7.93945L15.8594-7.93945L15.8594-11.8652C15.8594-12.4805 15.5176-12.8711 14.9414-12.8711C14.375-12.8711 14.0527-12.4609 14.0527-11.8652L14.0527-7.93945L10.1465-7.93945C9.53125-7.93945 9.13086-7.59766 9.13086-7.02148C9.13086-6.46484 9.55078-6.13281 10.1465-6.13281L14.0527-6.13281L14.0527-2.38281C14.0527-1.79688 14.375-1.38672 14.9414-1.38672Z"/>
  </g>
  <text style="stroke:none;fill:black;font-family:-apple-system,&quot;SF Pro Display&quot;,&quot;SF Pro Text&quot;,Helvetica,sans-serif;font-weight:bold;" transform="matrix(1 0 0 1 263 1953)">Design Variations</text>
  <text style="stroke:none;fill:black;font-family:-apple-system,&quot;SF Pro Display&quot;,&quot;SF Pro Text&quot;,Helvetica,sans-serif;" transform="matrix(1 0 0 1 263 1971)">Symbols are supported in up to nine weights and three scales.</text>
  <text style="stroke:none;fill:black;font-family:-apple-system,&quot;SF Pro Display&quot;,&quot;SF Pro Text&quot;,Helvetica,sans-serif;" transform="matrix(1 0 0 1 263 1989)">For optimal layout with text and other symbols, vertically align</text>
  <text style="stroke:none;fill:black;font-family:-apple-system,&quot;SF Pro Display&quot;,&quot;SF Pro Text&quot;,Helvetica,sans-serif;" transform="matrix(1 0 0 1 263 2007)">symbols with the adjacent text.</text>
  <line id="" style="fill:none;stroke:#00AEEF;stroke-width:0.5;opacity:1.0;" x1="776" x2="776" y1="1919" y2="1933"/>
  <g id="" transform="matrix(1 0 0 1 776 1933)">
   <path d="M3.31055 0.126953C3.82812 0.126953 4.08203-0.0683594 4.26758-0.605469L5.52734-4.0625L11.2891-4.0625L12.5488-0.605469C12.7344-0.0683594 12.9883 0.126953 13.4961 0.126953C14.0137 0.126953 14.3457-0.185547 14.3457-0.673828C14.3457-0.839844 14.3164-0.986328 14.2383-1.20117L9.6582-13.3887C9.43359-13.9941 9.0332-14.2871 8.4082-14.2871C7.80273-14.2871 7.39258-13.9941 7.17773-13.3984L2.59766-1.19141C2.51953-0.976562 2.49023-0.830078 2.49023-0.664062C2.49023-0.175781 2.80273 0.126953 3.31055 0.126953ZM6.00586-5.53711L8.37891-12.1094L8.42773-12.1094L10.8008-5.53711Z"/>
  </g>
  <line id="" style="fill:none;stroke:#00AEEF;stroke-width:0.5;opacity:1.0;" x1="792.836" x2="792.836" y1="1919" y2="1933"/>
  <text style="stroke:none;fill:black;font-family:-apple-system,&quot;SF Pro Display&quot;,&quot;SF Pro Text&quot;,Helvetica,sans-serif;font-weight:bold;" transform="matrix(1 0 0 1 776 1953)">Margins</text>
  <text style="stroke:none;fill:black;font-family:-apple-system,&quot;SF Pro Display&quot;,&quot;SF Pro Text&quot;,Helvetica,sans-serif;" transform="matrix(1 0 0 1 776 1971)">Leading and trailing margins on the left and right side of each symbol</text>
  <text style="stroke:none;fill:black;font-family:-apple-system,&quot;SF Pro Display&quot;,&quot;SF Pro Text&quot;,Helvetica,sans-serif;" transform="matrix(1 0 0 1 776 1989)">can be adjusted by modifying the x-location of the margin guidelines.</text>
  <text style="stroke:none;fill:black;font-family:-apple-system,&quot;SF Pro Display&quot;,&quot;SF Pro Text&quot;,Helvetica,sans-serif;" transform="matrix(1 0 0 1 776 2007)">Modifications are automatically applied proportionally to all</text>
  <text style="stroke:none;fill:black;font-family:-apple-system,&quot;SF Pro Display&quot;,&quot;SF Pro Text&quot;,Helvetica,sans-serif;" transform="matrix(1 0 0 1 776 2025)">scales and weights.</text>
  <g id="" transform="matrix(1 0 0 1 1289 1933)">
   <path d="M2.8418 1.86523L4.54102 3.57422C5.40039 4.44336 6.38672 4.38477 7.31445 3.35938L17.4902-7.85156C17.7539-7.76367 18.0273-7.7832 18.3398-7.8418L19.4043-8.03711L20.0684-7.36328L20.0293-6.80664C19.9902-6.30859 20.1172-5.92773 20.6055-5.44922L21.3672-4.70703C21.8457-4.22852 22.4609-4.19922 22.9297-4.66797L25.8398-7.58789C26.3086-8.05664 26.2891-8.65234 25.8105-9.13086L25.0391-9.89258C24.5605-10.3711 24.1895-10.5273 23.7109-10.4883L23.1348-10.4395L22.4902-11.0742L22.7344-12.1973C22.8613-12.7637 22.7051-13.2031 22.1191-13.7891L19.9219-15.9766C16.582-19.2969 12.1484-19.2188 9.25781-16.3281C8.83789-15.918 8.80859-15.3418 9.04297-14.9512C9.27734-14.5898 9.73633-14.3555 10.3809-14.5215C11.8457-14.8633 13.3691-14.9219 14.7949-13.9844L14.209-12.5293C14.0137-12.0508 13.9844-11.6504 14.1113-11.2891L3.04688-0.898438C2.06055 0.0195312 1.98242 0.996094 2.8418 1.86523ZM10.752-15.957C13.1836-17.7344 16.4746-17.4316 18.7012-15.2051L21.1328-12.793C21.3672-12.5586 21.4062-12.373 21.3379-12.0312L21.0156-10.5469L22.5195-9.0625L23.5059-9.12109C23.7598-9.13086 23.8379-9.11133 24.0332-8.91602L24.6094-8.33984L22.168-5.89844L21.5918-6.47461C21.3965-6.66992 21.3672-6.74805 21.377-7.01172L21.4453-7.98828L19.9512-9.47266L18.4277-9.21875C18.1055-9.15039 17.959-9.17969 17.7148-9.41406L15.7129-11.416C15.459-11.6504 15.4297-11.8164 15.5859-12.1875L16.4648-14.2773C14.9023-15.7324 12.8711-16.3574 10.8398-15.7617C10.6836-15.7227 10.625-15.8496 10.752-15.957ZM5.27344 2.30469L4.10156 1.14258C3.63281 0.683594 3.74023 0.341797 4.14062-0.0195312L14.9512-10.1953L16.416-8.71094L6.42578 2.27539C6.07422 2.67578 5.74219 2.77344 5.27344 2.30469Z"/>
  </g>
  <text style="stroke:none;fill:black;font-family:-apple-system,&quot;SF Pro Display&quot;,&quot;SF Pro Text&quot;,Helvetica,sans-serif;font-weight:bold;" transform="matrix(1 0 0 1 1289 1953)">Exporting</text>
  <text style="stroke:none;fill:black;font-family:-apple-system,&quot;SF Pro Display&quot;,&quot;SF Pro Text&quot;,Helvetica,sans-serif;" transform="matrix(1 0 0 1 1289 1971)">Symbols should be outlined when exporting to ensure the</text>
  <text style="stroke:none;fill:black;font-family:-apple-system,&quot;SF Pro Display&quot;,&quot;SF Pro Text&quot;,Helvetica,sans-serif;" transform="matrix(1 0 0 1 1289 1989)">design is preserved when submitting to Xcode.</text>
  <text id="template-version" style="stroke:none;fill:black;font-family:-apple-system,&quot;SF Pro Display&quot;,&quot;SF Pro Text&quot;,Helvetica,sans-serif;text-anchor:end;" transform="matrix(1 0 0 1 3036 1933)">Template v.2.0</text>
  <text style="stroke:none;fill:black;font-family:-apple-system,&quot;SF Pro Display&quot;,&quot;SF Pro Text&quot;,Helvetica,sans-serif;text-anchor:end;" transform="matrix(1 0 0 1 3036 1951)">Requires Xcode 12 or greater</text>
  <text style="stroke:none;fill:black;font-family:-apple-system,&quot;SF Pro Display&quot;,&quot;SF Pro Text&quot;,Helvetica,sans-serif;text-anchor:end;" transform="matrix(1 0 0 1 3036 1969)">Generated from plus.app</text>
  <text style="stroke:none;fill:black;font-family:-apple-system,&quot;SF Pro Display&quot;,&quot;SF Pro Text&quot;,Helvetica,sans-serif;text-anchor:end;" transform="matrix(1 0 0 1 3036 1987)">Typeset at 100 points</text>
  <text style="stroke:none;fill:black;font-family:-apple-system,&quot;SF Pro Display&quot;,&quot;SF Pro Text&quot;,Helvetica,sans-serif;" transform="matrix(1 0 0 1 263 726)">Small</text>
  <text style="stroke:none;fill:black;font-family:-apple-system,&quot;SF Pro Display&quot;,&quot;SF Pro Text&quot;,Helvetica,sans-serif;" transform="matrix(1 0 0 1 263 1156)">Medium</text>
  <text style="stroke:none;fill:black;font-family:-apple-system,&quot;SF Pro Display&quot;,&quot;SF Pro Text&quot;,Helvetica,sans-serif;" transform="matrix(1 0 0 1 263 1586)">Large</text>
 </g>
 <g id="Guides">
  <g id="H-reference" style="fill:#27AAE1;stroke:none;" transform="matrix(1 0 0 1 339 696)">
   <path d="M0.976562 0L3.66211 0L12.9883-24.4629L45.752-24.4629L55.127 0L57.7637 0L30.6152-70.459L28.125-70.459ZM29.3457-67.1387L29.4434-67.1387L44.873-26.709L13.8672-26.709Z"/>
  </g>
  <line id="Baseline-S" style="fill:none;stroke:#27AAE1;opacity:1;stroke-width:0.5;" x1="263" x2="3036" y1="696" y2="696"/>
  <line id="Capline-S" style="fill:none;stroke:#27AAE1;opacity:1;stroke-width:0.5;" x1="263" x2="3036" y1="625.541" y2="625.541"/>
  <g id="H-reference" style="fill:#27AAE1;stroke:none;" transform="matrix(1 0 0 1 339 1126)">
   <path d="M0.976562 0L3.66211 0L12.9883-24.4629L45.752-24.4629L55.127 0L57.7637 0L30.6152-70.459L28.125-70.459ZM29.3457-67.1387L29.4434-67.1387L44.873-26.709L13.8672-26.709Z"/>
  </g>
  <line id="Baseline-M" style="fill:none;stroke:#27AAE1;opacity:1;stroke-width:0.5;" x1="263" x2="3036" y1="1126" y2="1126"/>
  <line id="Capline-M" style="fill:none;stroke:#27AAE1;opacity:1;stroke-width:0.5;" x1="263" x2="3036" y1="1055.54" y2="1055.54"/>
  <g id="H-reference" style="fill:#27AAE1;stroke:none;" transform="matrix(1 0 0 1 339 1556)">
   <path d="M0.976562 0L3.66211 0L12.9883-24.4629L45.752-24.4629L55.127 0L57.7637 0L30.6152-70.459L28.125-70.459ZM29.3457-67.1387L29.4434-67.1387L44.873-26.709L13.8672-26.709Z"/>
  </g>
  <line id="Baseline-L" style="fill:none;stroke:#27AAE1;opacity:1;stroke-width:0.5;" x1="263" x2="3036" y1="1556" y2="1556"/>
  <line id="Capline-L" style="fill:none;stroke:#27AAE1;opacity:1;stroke-width:0.5;" x1="263" x2="3036" y1="1485.54" y2="1485.54"/>
  <line id="left-margin" style="fill:none;stroke:#00AEEF;stroke-width:0.5;opacity:1.0;" x1="1392.37" x2="1392.37" y1="1030.79" y2="1150.12"/>
  <line id="right-margin" style="fill:none;stroke:#00AEEF;stroke-width:0.5;opacity:1.0;" x1="1507.32" x2="1507.32" y1="1030.79" y2="1150.12"/>
 </g>
 <g id="Symbols">
  <g id="Black-L" transform="matrix(1 0 0 1 2856.13 1556)">
   <path d="M129.785-87.5488C122.998-94.2871 114.111-96.2891 100.391-96.2891L54.1504-96.2891C40.4297-96.2891 31.4941-94.2871 24.7559-87.5488C18.0176-80.8105 16.0645-72.0703 16.0645-58.252L16.0645-12.1582C16.0645 1.66016 18.0176 10.498 24.7559 17.1387C31.543 23.9258 40.4297 25.9277 54.1504 25.9277L100.391 25.9277C114.111 25.9277 123.047 23.9258 129.785 17.1387C136.523 10.4004 138.477 1.66016 138.477-12.1582L138.477-58.252C138.477-72.0703 136.523-80.8594 129.785-87.5488ZM118.262-60.0098L118.262-10.4004C118.262-3.80859 117.383-0.195312 114.941 2.34375C112.451 4.73633 108.691 5.71289 102.148 5.71289L52.3926 5.71289C45.8496 5.71289 42.0898 4.73633 39.5996 2.34375C37.1582-0.195312 36.3281-3.80859 36.3281-10.4004L36.3281-60.0098C36.3281-66.6016 37.1582-70.2148 39.5996-72.7051C42.0898-75.1465 45.8496-76.0742 52.3926-76.0742L102.148-76.0742C108.691-76.0742 112.451-75.1465 114.941-72.7051C117.383-70.2148 118.262-66.6016 118.262-60.0098ZM77.2949-7.22656C82.0801-7.22656 85.498-10.6445 85.498-15.4297L85.498-26.9531L97.998-26.9531C102.734-26.9531 106.201-30.3711 106.201-35.1074C106.201-39.9414 102.783-43.3594 97.998-43.3594L85.498-43.3594L85.498-55.2734C85.498-60.0586 82.0801-63.5254 77.2949-63.5254C72.5098-63.5254 69.0918-60.0098 69.0918-55.2734L69.0918-43.3594L56.6406-43.3594C51.8555-43.3594 48.3887-39.9414 48.3887-35.1074C48.3887-30.3711 51.9043-26.9531 56.6406-26.9531L69.0918-26.9531L69.0918-15.4297C69.0918-10.6934 72.5098-7.22656 77.2949-7.22656Z"/>
  </g>
  <g id="Heavy-L" transform="matrix(1 0 0 1 2560.35 1556)">
   <path d="M128.32-86.9629C121.68-93.5059 112.891-95.3613 99.8047-95.3613L52.832-95.3613C39.7949-95.3613 30.957-93.5059 24.4141-86.9141C17.8223-80.3711 16.0645-71.6797 16.0645-58.5938L16.0645-11.8652C16.0645 1.36719 17.8223 10.0586 24.4141 16.6016C31.0059 23.1445 39.7949 25 52.9297 25L99.8047 25C112.891 25 121.729 23.1445 128.32 16.6016C134.863 10.0098 136.621 1.36719 136.621-11.8652L136.621-58.4961C136.621-71.7285 134.863-80.4199 128.32-86.9629ZM119.141-60.2539L119.141-10.1074C119.141-3.41797 118.213 0.927734 115.479 3.75977C112.646 6.54297 108.203 7.4707 101.514 7.4707L51.1719 7.4707C44.4824 7.4707 40.0391 6.49414 37.207 3.75977C34.4727 0.927734 33.5938-3.41797 33.5938-10.1074L33.5938-60.2051C33.5938-66.9434 34.4727-71.2891 37.207-74.1211C40.0391-76.9043 44.5312-77.832 51.2207-77.832L101.514-77.832C108.203-77.832 112.646-76.8555 115.479-74.1211C118.262-71.2891 119.141-66.9434 119.141-60.2539ZM76.3184-7.17773C80.6641-7.17773 83.6914-10.2539 83.6914-14.5996L83.6914-27.832L97.9004-27.832C102.197-27.832 105.322-30.8105 105.322-35.1562C105.322-39.502 102.246-42.4805 97.9004-42.4805L83.6914-42.4805L83.6914-56.25C83.6914-60.6445 80.6641-63.7207 76.3184-63.7207C72.0215-63.7207 69.043-60.5957 69.043-56.25L69.043-42.4805L54.8828-42.4805C50.5371-42.4805 47.4121-39.502 47.4121-35.1562C47.4121-30.8105 50.5859-27.832 54.8828-27.832L69.043-27.832L69.043-14.5996C69.043-10.3027 72.0215-7.17773 76.3184-7.17773Z"/>
  </g>
  <g id="Bold-L" transform="matrix(1 0 0 1 2264.66 1556)">
   <path d="M126.66-86.2793C120.215-92.6758 111.523-94.2871 99.0723-94.2871L51.3672-94.2871C39.1113-94.2871 30.3711-92.6758 23.9746-86.2793C17.627-79.8828 16.0645-71.2891 16.0645-58.9844L16.0645-11.5234C16.0645 0.976562 17.5781 9.57031 23.9746 15.918C30.4199 22.3145 39.0625 23.9258 51.5137 23.9258L99.0723 23.9258C111.523 23.9258 120.264 22.3145 126.66 15.918C133.008 9.52148 134.57 0.976562 134.57-11.5234L134.57-58.7891C134.57-71.3379 133.008-79.9316 126.66-86.2793ZM120.117-60.5469L120.117-9.81445C120.117-2.92969 119.189 2.14844 116.064 5.32227C112.891 8.49609 107.617 9.47266 100.83 9.47266L49.8047 9.47266C42.9688 9.47266 37.7441 8.49609 34.5703 5.32227C31.4453 2.14844 30.5176-2.92969 30.5176-9.81445L30.5176-60.4004C30.5176-67.3828 31.4453-72.5098 34.5703-75.6836C37.7441-78.8574 43.0176-79.834 49.9512-79.834L100.83-79.834C107.617-79.834 112.891-78.8086 116.064-75.6836C119.189-72.5098 120.117-67.3828 120.117-60.5469ZM75.293-7.08008C79.1016-7.08008 81.6895-9.81445 81.6895-13.7207L81.6895-28.8574L97.7539-28.8574C101.562-28.8574 104.346-31.3477 104.346-35.1562C104.346-39.0137 101.66-41.5527 97.7539-41.5527L81.6895-41.5527L81.6895-57.3242C81.6895-61.2793 79.1016-63.9648 75.293-63.9648C71.4844-63.9648 68.9941-61.1816 68.9941-57.3242L68.9941-41.5527L52.9785-41.5527C49.0234-41.5527 46.2891-39.0137 46.2891-35.1562C46.2891-31.3477 49.1211-28.8574 52.9785-28.8574L68.9941-28.8574L68.9941-13.7207C68.9941-9.86328 71.4844-7.08008 75.293-7.08008Z"/>
  </g>
  <g id="Semibold-L" transform="matrix(1 0 0 1 1968.68 1556)">
   <path d="M125.488-85.8398C119.189-92.0898 110.596-93.5547 98.6328-93.5547L50.3418-93.5547C38.623-93.5547 29.9805-92.041 23.7305-85.791C17.4316-79.541 16.0645-71.0449 16.0645-59.2285L16.0645-11.3281C16.0645 0.732422 17.4316 9.27734 23.6816 15.4785C30.0293 21.7285 38.5742 23.1934 50.5859 23.1934L98.6328 23.1934C110.596 23.1934 119.238 21.7285 125.488 15.4785C131.738 9.22852 133.105 0.732422 133.105-11.3281L133.105-59.0332C133.105-71.0449 131.738-79.5898 125.488-85.8398ZM120.801-60.7422L120.801-9.57031C120.801-2.63672 119.824 3.02734 116.455 6.44531C113.037 9.86328 107.227 10.8398 100.342 10.8398L48.8281 10.8398C41.9434 10.8398 36.1816 9.81445 32.7637 6.44531C29.3457 3.02734 28.418-2.63672 28.418-9.57031L28.418-60.5469C28.418-67.627 29.3457-73.3887 32.7148-76.8066C36.1328-80.2246 41.9922-81.2012 49.0723-81.2012L100.342-81.2012C107.227-81.2012 113.037-80.1758 116.455-76.7578C119.824-73.3398 120.801-67.6758 120.801-60.7422ZM74.5605-7.08008C78.0273-7.08008 80.2734-9.47266 80.2734-13.0859L80.2734-29.541L97.6074-29.541C101.172-29.541 103.662-31.7383 103.662-35.1562C103.662-38.6719 101.27-40.8691 97.6074-40.8691L80.2734-40.8691L80.2734-58.1055C80.2734-61.7188 78.0273-64.1602 74.5605-64.1602C71.0938-64.1602 68.9453-61.6211 68.9453-58.1055L68.9453-40.8691L51.6113-40.8691C47.998-40.8691 45.5078-38.6719 45.5078-35.1562C45.5078-31.7383 48.0957-29.541 51.6113-29.541L68.9453-29.541L68.9453-13.0859C68.9453-9.57031 71.0938-7.08008 74.5605-7.08008Z"/>
  </g>
  <g id="Medium-L" transform="matrix(1 0 0 1 1672.51 1556)">
   <path d="M124.609-85.4492C118.408-91.6504 109.863-92.9688 98.2422-92.9688L49.6094-92.9688C38.2812-92.9688 29.6875-91.6016 23.5352-85.4492C17.334-79.248 16.0645-70.8008 16.0645-59.4238L16.0645-11.1328C16.0645 0.537109 17.334 8.98438 23.4863 15.1367C29.6875 21.3379 38.2324 22.6562 49.8535 22.6562L98.2422 22.6562C109.863 22.6562 118.457 21.3379 124.609 15.1367C130.811 8.98438 132.031 0.537109 132.031-11.1328L132.031-59.1797C132.031-70.8496 130.811-79.3457 124.609-85.4492ZM121.289-60.8887L121.289-9.42383C121.289-2.39258 120.312 3.66211 116.748 7.27539C113.135 10.8887 106.934 11.9141 99.9512 11.9141L48.1445 11.9141C41.1621 11.9141 34.9609 10.8398 31.3477 7.27539C27.7832 3.66211 26.8066-2.39258 26.8066-9.42383L26.8066-60.6445C26.8066-67.8711 27.7832-74.0234 31.3477-77.6367C34.9121-81.25 41.2109-82.2266 48.3887-82.2266L99.9512-82.2266C106.934-82.2266 113.135-81.2012 116.748-77.5879C120.312-73.9746 121.289-67.9199 121.289-60.8887ZM73.9746-7.03125C77.1973-7.03125 79.248-9.22852 79.248-12.5977L79.248-30.0293L97.5586-30.0293C100.83-30.0293 103.174-32.0312 103.174-35.1562C103.174-38.3789 100.928-40.3809 97.5586-40.3809L79.248-40.3809L79.248-58.6426C79.248-62.0605 77.1973-64.2578 73.9746-64.2578C70.8008-64.2578 68.8965-61.9629 68.8965-58.6426L68.8965-40.3809L50.6348-40.3809C47.2168-40.3809 44.9707-38.3789 44.9707-35.1562C44.9707-32.0312 47.3145-30.0293 50.6348-30.0293L68.8965-30.0293L68.8965-12.5977C68.8965-9.32617 70.8008-7.03125 73.9746-7.03125Z"/>
  </g>
  <g id="Regular-L" transform="matrix(1 0 0 1 1376.5 1556)">
   <path d="M123.486-85.0098C117.383-91.0645 108.936-92.2363 97.7539-92.2363L48.584-92.2363C37.793-92.2363 29.2969-91.0156 23.2422-84.9609C17.1875-78.9551 16.0645-70.5566 16.0645-59.7168L16.0645-10.9375C16.0645 0.292969 17.1387 8.69141 23.1934 14.6973C29.2969 20.752 37.7441 21.9238 48.9258 21.9238L97.7539 21.9238C108.936 21.9238 117.432 20.752 123.486 14.6973C129.541 8.64258 130.615 0.292969 130.615-10.9375L130.615-59.375C130.615-70.6055 129.541-79.0039 123.486-85.0098ZM121.973-61.084L121.973-9.22852C121.973-2.09961 120.947 4.49219 117.139 8.34961C113.281 12.207 106.543 13.2812 99.4629 13.2812L47.2168 13.2812C40.1367 13.2812 33.3984 12.207 29.541 8.34961C25.7324 4.49219 24.707-2.09961 24.707-9.22852L24.707-60.791C24.707-68.1641 25.7324-74.8535 29.541-78.7109C33.3496-82.5684 40.1855-83.5938 47.5098-83.5938L99.4629-83.5938C106.543-83.5938 113.281-82.5195 117.139-78.6621C120.996-74.8047 121.973-68.2129 121.973-61.084ZM73.2422-6.98242C76.123-6.98242 77.832-8.93555 77.832-12.0117L77.832-30.7129L97.4609-30.7129C100.391-30.7129 102.49-32.373 102.49-35.1562C102.49-38.0371 100.537-39.7461 97.4609-39.7461L77.832-39.7461L77.832-59.375C77.832-62.5 76.123-64.4531 73.2422-64.4531C70.459-64.4531 68.8477-62.4023 68.8477-59.375L68.8477-39.7461L49.3164-39.7461C46.1914-39.7461 44.1895-38.0371 44.1895-35.1562C44.1895-32.373 46.3379-30.7129 49.3164-30.7129L68.8477-30.7129L68.8477-12.0117C68.8477-9.0332 70.459-6.98242 73.2422-6.98242Z"/>
  </g>
  <g id="Light-L" transform="matrix(1 0 0 1 1080.89 1556)">
   <path d="M121.582-84.2773C116.016-89.7949 108.398-91.2109 96.6309-91.2109L47.3633-91.2109C36.2305-91.2109 28.5156-89.7461 22.9492-84.2285C17.4316-78.7109 16.0645-71.0938 16.0645-59.9121L16.0645-10.8887C16.0645 0.927734 17.3828 8.49609 22.9004 14.0137C28.5156 19.5312 36.1328 20.9473 47.8516 20.9473L96.6309 20.9473C108.398 20.9473 116.064 19.5312 121.582 14.0137C127.1 8.44727 128.418 0.927734 128.418-10.8887L128.418-59.375C128.418-71.1914 127.1-78.8086 121.582-84.2773ZM121.826-61.084L121.826-9.22852C121.826-1.26953 120.508 5.22461 116.699 9.08203C112.793 13.0371 106.201 14.3066 98.291 14.3066L46.1914 14.3066C38.3301 14.3066 31.6895 12.9883 27.832 9.08203C23.9258 5.22461 22.7051-1.26953 22.7051-9.22852L22.7051-60.5469C22.7051-68.8965 23.9258-75.5371 27.7832-79.4434C31.6406-83.3496 38.4277-84.5703 46.6797-84.5703L98.291-84.5703C106.201-84.5703 112.793-83.252 116.699-79.3945C120.557-75.4883 121.826-68.9941 121.826-61.084ZM72.168-6.93359C74.3652-6.93359 75.7324-8.44727 75.7324-10.6934L75.7324-31.7871L97.3145-31.7871C99.4629-31.7871 101.074-33.1055 101.074-35.1562C101.074-37.3047 99.6094-38.6719 97.3145-38.6719L75.7324-38.6719L75.7324-60.3027C75.7324-62.5977 74.3652-64.0625 72.168-64.0625C70.0684-64.0625 68.7988-62.5488 68.7988-60.3027L68.7988-38.6719L47.2656-38.6719C44.9707-38.6719 43.4082-37.3047 43.4082-35.1562C43.4082-33.1055 45.0684-31.7871 47.2656-31.7871L68.7988-31.7871L68.7988-10.6934C68.7988-8.49609 70.0684-6.93359 72.168-6.93359Z"/>
  </g>
  <g id="Thin-L" transform="matrix(1 0 0 1 785.621 1556)">
   <path d="M119.092-83.3008C114.16-88.1348 107.617-89.8438 95.1172-89.8438L45.752-89.8438C34.1309-89.8438 27.4414-88.0859 22.6074-83.2031C17.7734-78.3691 16.0645-71.8262 16.0645-60.1562L16.0645-10.8398C16.0645 1.75781 17.6758 8.30078 22.5098 13.0859C27.4414 17.9199 33.9844 19.6289 46.4844 19.6289L95.1172 19.6289C107.617 19.6289 114.258 17.9199 119.092 13.0859C123.926 8.20312 125.537 1.75781 125.537-10.8398L125.537-59.375C125.537-71.9727 123.926-78.5156 119.092-83.3008ZM121.631-61.0352L121.631-9.22852C121.631-0.195312 119.971 6.15234 116.113 10.0586C112.158 14.0625 105.713 15.6738 96.7285 15.6738L44.873 15.6738C35.9375 15.6738 29.4434 14.0137 25.5371 10.0586C21.582 6.15234 19.9707-0.195312 19.9707-9.22852L19.9707-60.2539C19.9707-69.9219 21.582-76.4648 25.4395-80.3711C29.3945-84.375 36.084-85.8887 45.6055-85.8887L96.7285-85.8887C105.713-85.8887 112.158-84.2285 116.113-80.3223C120.02-76.3672 121.631-70.0684 121.631-61.0352ZM70.752-6.88477C72.0215-6.88477 72.9004-7.76367 72.9004-8.93555L72.9004-33.1543L97.1191-33.1543C98.291-33.1543 99.2676-34.0332 99.2676-35.1074C99.2676-36.3281 98.3398-37.2559 97.1191-37.2559L72.9004-37.2559L72.9004-61.4746C72.9004-62.7441 72.0215-63.623 70.752-63.623C69.6289-63.623 68.75-62.7441 68.75-61.4746L68.75-37.2559L44.5312-37.2559C43.3105-37.2559 42.4316-36.3281 42.4316-35.1074C42.4316-34.0332 43.4082-33.1543 44.5312-33.1543L68.75-33.1543L68.75-8.93555C68.75-7.8125 69.6289-6.88477 70.752-6.88477Z"/>
  </g>
  <g id="Ultralight-L" transform="matrix(1 0 0 1 489.643 1556)">
   <path d="M117.822-82.8125C113.232-87.3047 107.227-89.1113 94.3359-89.1113L44.9219-89.1113C33.1055-89.1113 26.9043-87.207 22.4121-82.7148C17.9199-78.2227 16.0645-72.2168 16.0645-60.2539L16.0645-10.791C16.0645 2.14844 17.8223 8.20312 22.3145 12.5977C26.9043 17.0898 32.9102 18.9453 45.8008 18.9453L94.3359 18.9453C107.227 18.9453 113.33 17.0898 117.822 12.5977C122.314 8.10547 124.072 2.14844 124.072-10.791L124.072-59.375C124.072-72.3633 122.314-78.3691 117.822-82.8125ZM121.533-60.9863L121.533-9.22852C121.533 0.390625 119.678 6.64062 115.82 10.5469C111.865 14.5996 105.469 16.3574 95.9473 16.3574L44.1895 16.3574C34.7168 16.3574 28.2715 14.502 24.3652 10.5469C20.4102 6.64062 18.6035 0.390625 18.6035-9.22852L18.6035-60.1074C18.6035-70.4102 20.4102-76.9043 24.2676-80.8594C28.2227-84.9121 34.8633-86.5723 45.0684-86.5723L95.9473-86.5723C105.469-86.5723 111.865-84.7168 115.82-80.7617C119.775-76.8066 121.533-70.6055 121.533-60.9863ZM70.0195-6.88477C70.8496-6.88477 71.4355-7.42188 71.4355-8.05664L71.4355-33.8379L97.0215-33.8379C97.6562-33.8379 98.291-34.5215 98.291-35.1074C98.291-35.8398 97.7539-36.5234 97.0215-36.5234L71.4355-36.5234L71.4355-62.1094C71.4355-62.793 70.8496-63.3789 70.0195-63.3789C69.3848-63.3789 68.75-62.8418 68.75-62.1094L68.75-36.5234L43.1641-36.5234C42.4805-36.5234 41.8945-35.8398 41.8945-35.1074C41.8945-34.5215 42.5293-33.8379 43.1641-33.8379L68.75-33.8379L68.75-8.05664C68.75-7.42188 69.3848-6.88477 70.0195-6.88477Z"/>
  </g>
  <g id="Black-M" transform="matrix(1 0 0 1 2872.85 1126)">
   <path d="M101.611-76.1719C96.3867-81.3477 89.7949-83.3008 78.0273-83.3008L43.0664-83.3008C31.3477-83.3008 24.707-81.3477 19.5312-76.1719C14.3555-70.9961 12.4512-64.5508 12.4512-52.6855L12.4512-17.7246C12.4512-5.85938 14.3555 0.683594 19.5312 5.76172C24.7559 10.9375 31.3477 12.8906 43.0664 12.8906L78.0273 12.8906C89.7949 12.8906 96.4355 10.9375 101.611 5.76172C106.787 0.634766 108.643-5.85938 108.643-17.7246L108.643-52.6855C108.643-64.5508 106.787-71.0938 101.611-76.1719ZM90.3809-54.0527L90.3809-16.3574C90.3809-10.9375 89.5996-9.17969 88.1836-7.66602C86.6211-6.20117 84.7168-5.37109 79.3945-5.37109L41.6992-5.37109C36.377-5.37109 34.4727-6.20117 32.959-7.66602C31.4941-9.17969 30.7617-10.9375 30.7617-16.3574L30.7617-54.0527C30.7617-59.4238 31.4941-61.2305 32.959-62.7441C34.4727-64.209 36.377-65.0391 41.6992-65.0391L79.3945-65.0391C84.7168-65.0391 86.6211-64.209 88.1836-62.7441C89.5996-61.2305 90.3809-59.4238 90.3809-54.0527ZM60.5957-13.5742C64.5508-13.5742 67.5781-16.4551 67.5781-20.2637L67.5781-28.1738L76.0742-28.1738C79.8828-28.1738 82.7637-31.2012 82.7637-35.1562C82.7637-39.0625 79.8828-42.0898 76.0742-42.0898L67.5781-42.0898L67.5781-49.9512C67.5781-53.7598 64.5508-56.6406 60.5957-56.6406C56.6406-56.6406 53.6133-53.7598 53.6133-49.9512L53.6133-42.0898L45.1172-42.0898C41.3086-42.0898 38.4277-39.0625 38.4277-35.1562C38.4277-31.2012 41.3086-28.1738 45.1172-28.1738L53.6133-28.1738L53.6133-20.2637C53.6133-16.4551 56.6406-13.5742 60.5957-13.5742Z"/>
  </g>
  <g id="Heavy-M" transform="matrix(1 0 0 1 2576.85 1126)">
   <path d="M100.439-75.7324C95.2637-80.8594 88.5742-82.5195 77.6367-82.5195L41.9434-82.5195C31.0547-82.5195 24.3164-80.8594 19.1895-75.7324C14.0625-70.6055 12.4512-64.0137 12.4512-53.0273L12.4512-17.4316C12.4512-6.34766 14.0625 0.244141 19.1895 5.32227C24.3652 10.4492 31.0547 12.1582 41.9922 12.1582L77.6367 12.1582C88.5742 12.1582 95.3125 10.4492 100.439 5.32227C105.566 0.195312 107.227-6.34766 107.227-17.4316L107.227-52.9785C107.227-64.0137 105.566-70.6543 100.439-75.7324ZM91.3574-54.3457L91.3574-16.0645C91.3574-10.7422 90.625-8.1543 88.8184-6.29883C86.9629-4.49219 84.2773-3.71094 79.0039-3.71094L40.625-3.71094C35.4004-3.71094 32.666-4.49219 30.8105-6.29883C29.0039-8.1543 28.2715-10.7422 28.2715-16.0645L28.2715-54.2969C28.2715-59.6191 29.0039-62.2559 30.8105-64.1113C32.666-65.918 35.4004-66.6992 40.6738-66.6992L79.0039-66.6992C84.2773-66.6992 86.9629-65.918 88.8184-64.1113C90.6738-62.2559 91.3574-59.668 91.3574-54.3457ZM59.8145-13.5254C63.4766-13.5254 66.1621-16.1621 66.1621-19.7266L66.1621-28.8574L75.9766-28.8574C79.4922-28.8574 82.1777-31.543 82.1777-35.1562C82.1777-38.7695 79.541-41.4551 75.9766-41.4551L66.1621-41.4551L66.1621-50.7812C66.1621-54.3457 63.4766-56.9824 59.8145-56.9824C56.2012-56.9824 53.5645-54.3457 53.5645-50.7812L53.5645-41.4551L43.75-41.4551C40.1855-41.4551 37.5488-38.7695 37.5488-35.1562C37.5488-31.543 40.1855-28.8574 43.75-28.8574L53.5645-28.8574L53.5645-19.7266C53.5645-16.1621 56.2012-13.5254 59.8145-13.5254Z"/>
  </g>
  <g id="Bold-M" transform="matrix(1 0 0 1 2280.97 1126)">
   <path d="M99.1699-75.1953C94.0918-80.2734 87.2559-81.6406 77.2461-81.6406L40.7227-81.6406C30.7617-81.6406 23.9258-80.2734 18.8477-75.1953C13.7695-70.1172 12.4512-63.4277 12.4512-53.3691L12.4512-17.041C12.4512-6.93359 13.7695-0.195312 18.8477 4.83398C23.9746 9.91211 30.7617 11.2793 40.7715 11.2793L77.2461 11.2793C87.2559 11.2793 94.0918 9.91211 99.1699 4.83398C104.248-0.244141 105.566-6.93359 105.566-17.041L105.566-53.3203C105.566-63.4277 104.248-70.166 99.1699-75.1953ZM92.4805-54.6875L92.4805-15.7227C92.4805-10.498 91.7969-6.98242 89.5996-4.78516C87.3535-2.53906 83.7402-1.80664 78.6133-1.80664L39.4531-1.80664C34.2773-1.80664 30.6641-2.53906 28.418-4.78516C26.2207-6.98242 25.5371-10.498 25.5371-15.7227L25.5371-54.5898C25.5371-59.8633 26.2207-63.3789 28.418-65.625C30.6641-67.8223 34.2773-68.6035 39.502-68.6035L78.6133-68.6035C83.7402-68.6035 87.3535-67.8223 89.5996-65.625C91.7969-63.3789 92.4805-59.8633 92.4805-54.6875ZM58.9844-13.4766C62.2559-13.4766 64.5508-15.8203 64.5508-19.1406L64.5508-29.6387L75.8301-29.6387C79.1016-29.6387 81.4941-31.8848 81.4941-35.1562C81.4941-38.4766 79.1504-40.7227 75.8301-40.7227L64.5508-40.7227L64.5508-51.709C64.5508-55.0293 62.2559-57.373 58.9844-57.373C55.7129-57.373 53.5156-54.9805 53.5156-51.709L53.5156-40.7227L42.2363-40.7227C38.916-40.7227 36.5723-38.4766 36.5723-35.1562C36.5723-31.8848 38.9648-29.6387 42.2363-29.6387L53.5156-29.6387L53.5156-19.1406C53.5156-15.8691 55.7129-13.4766 58.9844-13.4766Z"/>
  </g>
  <g id="Semibold-M" transform="matrix(1 0 0 1 1984.82 1126)">
   <path d="M98.291-74.8535C93.2129-79.8828 86.377-81.0547 76.9531-81.0547L39.8438-81.0547C30.5664-81.0547 23.6328-79.8828 18.6035-74.8535C13.5742-69.8242 12.4512-62.9883 12.4512-53.6621L12.4512-16.8457C12.4512-7.37305 13.5254-0.537109 18.6035 4.49219C23.6816 9.52148 30.5176 10.6934 39.9414 10.6934L76.9531 10.6934C86.377 10.6934 93.2617 9.52148 98.291 4.49219C103.32-0.585938 104.443-7.37305 104.443-16.8457L104.443-53.5645C104.443-63.0371 103.32-69.8242 98.291-74.8535ZM93.2617-54.8828L93.2617-15.4785C93.2617-10.3516 92.5781-6.20117 90.1367-3.71094C87.5977-1.2207 83.3984-0.488281 78.2715-0.488281L38.623-0.488281C33.4961-0.488281 29.2969-1.2207 26.7578-3.71094C24.3164-6.20117 23.6328-10.3516 23.6328-15.4785L23.6328-54.834C23.6328-60.0098 24.3164-64.1602 26.7578-66.6992C29.248-69.1895 33.4961-69.873 38.6719-69.873L78.2715-69.873C83.3984-69.873 87.5977-69.1406 90.1367-66.6504C92.5781-64.1602 93.2617-60.0586 93.2617-54.8828ZM58.3984-13.4277C61.4746-13.4277 63.4766-15.5762 63.4766-18.7012L63.4766-30.2246L75.7324-30.2246C78.8086-30.2246 81.0547-32.1777 81.0547-35.1562C81.0547-38.2324 78.9062-40.2344 75.7324-40.2344L63.4766-40.2344L63.4766-52.3438C63.4766-55.4688 61.4746-57.6172 58.3984-57.6172C55.4199-57.6172 53.4668-55.4199 53.4668-52.3438L53.4668-40.2344L41.2109-40.2344C38.0371-40.2344 35.8887-38.2324 35.8887-35.1562C35.8887-32.1777 38.1348-30.2246 41.2109-30.2246L53.4668-30.2246L53.4668-18.7012C53.4668-15.625 55.4199-13.4277 58.3984-13.4277Z"/>
  </g>
  <g id="Medium-M" transform="matrix(1 0 0 1 1688.55 1126)">
   <path d="M97.6562-74.5605C92.5781-79.5898 85.6445-80.6152 76.709-80.6152L39.209-80.6152C30.3711-80.6152 23.4375-79.5898 18.4082-74.5605C13.3789-69.5801 12.4512-62.6953 12.4512-53.8574L12.4512-16.6504C12.4512-7.66602 13.3789-0.78125 18.4082 4.19922C23.4375 9.22852 30.3711 10.2051 39.3066 10.2051L76.709 10.2051C85.6445 10.2051 92.627 9.22852 97.6562 4.19922C102.637-0.830078 103.564-7.66602 103.564-16.6504L103.564-53.7109C103.564-62.6953 102.637-69.5801 97.6562-74.5605ZM93.8477-55.0781L93.8477-15.2832C93.8477-10.2051 93.2129-5.61523 90.5273-2.92969C87.793-0.195312 83.1543 0.488281 78.0762 0.488281L37.9883 0.488281C32.9102 0.488281 28.2227-0.244141 25.5371-2.92969C22.8516-5.61523 22.168-10.2051 22.168-15.2832L22.168-54.9805C22.168-60.1562 22.8516-64.7949 25.5371-67.4805C28.2227-70.166 32.9102-70.8496 38.0859-70.8496L78.0762-70.8496C83.1543-70.8496 87.793-70.166 90.5273-67.4805C93.2129-64.7461 93.8477-60.1562 93.8477-55.0781ZM57.959-13.3789C60.8398-13.3789 62.6465-15.3809 62.6465-18.4082L62.6465-30.6152L75.6836-30.6152C78.6133-30.6152 80.6641-32.373 80.6641-35.1562C80.6641-38.0371 78.7109-39.8438 75.6836-39.8438L62.6465-39.8438L62.6465-52.832C62.6465-55.8105 60.8398-57.8125 57.959-57.8125C55.127-57.8125 53.418-55.7617 53.418-52.832L53.418-39.8438L40.4297-39.8438C37.4023-39.8438 35.3516-38.0371 35.3516-35.1562C35.3516-32.373 37.5-30.6152 40.4297-30.6152L53.418-30.6152L53.418-18.4082C53.418-15.4785 55.127-13.3789 57.959-13.3789Z"/>
  </g>
  <g id="Regular-M" transform="matrix(1 0 0 1 1392.37 1126)">
   <path d="M96.7773-74.2188C91.7969-79.1992 84.7656-79.9805 76.416-79.9805L38.3789-79.9805C30.1758-79.9805 23.1445-79.1992 18.1641-74.2188C13.1836-69.2383 12.4512-62.2559 12.4512-54.1016L12.4512-16.4062C12.4512-8.05664 13.1836-1.12305 18.1641 3.85742C23.1445 8.83789 30.1758 9.61914 38.4766 9.61914L76.416 9.61914C84.7656 9.61914 91.7969 8.83789 96.7773 3.85742C101.758-1.12305 102.49-8.05664 102.49-16.4062L102.49-53.9551C102.49-62.3047 101.758-69.2871 96.7773-74.2188ZM94.6289-55.3223L94.6289-15.0879C94.6289-10.0098 93.9941-4.83398 91.0156-1.85547C88.0859 1.07422 82.8125 1.75781 77.7832 1.75781L37.1582 1.75781C32.1289 1.75781 26.8555 1.07422 23.877-1.85547C20.9473-4.83398 20.3125-10.0098 20.3125-15.0879L20.3125-55.1758C20.3125-60.3027 20.9473-65.5762 23.877-68.5059C26.8555-71.4844 32.1777-72.1191 37.3047-72.1191L77.7832-72.1191C82.8125-72.1191 88.0859-71.4355 91.0156-68.5059C93.9941-65.5273 94.6289-60.3516 94.6289-55.3223ZM57.4219-13.3789C60.0098-13.3789 61.5723-15.1367 61.5723-17.9688L61.5723-31.1523L75.5859-31.1523C78.3203-31.1523 80.2246-32.6172 80.2246-35.2051C80.2246-37.8418 78.4668-39.3555 75.5859-39.3555L61.5723-39.3555L61.5723-53.418C61.5723-56.2988 60.0098-58.0566 57.4219-58.0566C54.834-58.0566 53.3691-56.2012 53.3691-53.418L53.3691-39.3555L39.3555-39.3555C36.5234-39.3555 34.7168-37.8418 34.7168-35.2051C34.7168-32.6172 36.6211-31.1523 39.3555-31.1523L53.3691-31.1523L53.3691-17.9688C53.3691-15.2344 54.834-13.3789 57.4219-13.3789Z"/>
  </g>
  <g id="Light-M" transform="matrix(1 0 0 1 1096.64 1126)">
   <path d="M95.0684-73.584C90.5273-78.0762 84.2285-79.0527 75.3906-79.0527L37.2559-79.0527C28.7598-79.0527 22.4609-78.0762 17.9199-73.5352C13.4277-69.043 12.4512-62.793 12.4512-54.248L12.4512-16.3574C12.4512-7.51953 13.3789-1.26953 17.8711 3.22266C22.4609 7.76367 28.7109 8.74023 37.5488 8.74023L75.3906 8.74023C84.2285 8.74023 90.5762 7.76367 95.0684 3.22266C99.6094-1.26953 100.537-7.51953 100.537-16.3574L100.537-53.9551C100.537-62.8418 99.6094-69.0918 95.0684-73.584ZM94.4824-55.2734L94.4824-15.0879C94.4824-9.27734 93.6035-4.19922 90.625-1.2207C87.6465 1.80664 82.4707 2.68555 76.709 2.68555L36.2305 2.68555C30.5176 2.68555 25.3418 1.75781 22.3145-1.2207C19.3359-4.19922 18.5059-9.27734 18.5059-15.0879L18.5059-54.9805C18.5059-60.9863 19.3359-66.1621 22.3145-69.1406C25.293-72.168 30.5664-73.0469 36.5723-73.0469L76.709-73.0469C82.4707-73.0469 87.6465-72.1191 90.625-69.1406C93.6035-66.1133 94.4824-61.0352 94.4824-55.2734ZM56.4453-13.3301C58.4473-13.3301 59.6191-14.6973 59.6191-16.7969L59.6191-32.0801L75.4883-32.0801C77.5391-32.0801 78.9551-33.252 78.9551-35.1562C78.9551-37.1582 77.5879-38.3789 75.4883-38.3789L59.6191-38.3789L59.6191-54.248C59.6191-56.3965 58.4473-57.7637 56.4453-57.7637C54.4922-57.7637 53.3203-56.2988 53.3203-54.248L53.3203-38.3789L37.5488-38.3789C35.4004-38.3789 33.9844-37.1582 33.9844-35.1562C33.9844-33.252 35.498-32.0801 37.5488-32.0801L53.3203-32.0801L53.3203-16.7969C53.3203-14.7461 54.4922-13.3301 56.4453-13.3301Z"/>
  </g>
  <g id="Thin-M" transform="matrix(1 0 0 1 801.222 1126)">
   <path d="M92.8223-72.7051C88.8672-76.6113 83.5938-77.832 74.0234-77.832L35.8398-77.832C26.9043-77.832 21.4844-76.5625 17.5781-72.6562C13.6719-68.75 12.4512-63.4277 12.4512-54.4922L12.4512-16.3574C12.4512-6.73828 13.623-1.46484 17.5293 2.39258C21.4844 6.29883 26.8066 7.56836 36.3281 7.56836L74.0234 7.56836C83.5938 7.56836 88.916 6.29883 92.8223 2.39258C96.7285-1.51367 97.9492-6.73828 97.9492-16.3574L97.9492-53.9551C97.9492-63.5254 96.7285-68.8477 92.8223-72.7051ZM94.2871-55.2246L94.2871-15.0879C94.2871-8.30078 93.0664-3.36914 90.0879-0.341797C87.0605 2.73438 82.0312 3.90625 75.293 3.90625L35.0586 3.90625C28.3691 3.90625 23.291 2.68555 20.2637-0.341797C17.2363-3.36914 16.0645-8.30078 16.0645-15.0879L16.0645-54.6875C16.0645-61.8652 17.2363-66.9922 20.2148-70.0195C23.2422-73.0957 28.4668-74.2188 35.5957-74.2188L75.293-74.2188C82.0312-74.2188 87.0605-72.998 90.0879-69.9707C93.1152-66.9434 94.2871-62.0117 94.2871-55.2246ZM55.127-13.2812C56.3477-13.2812 57.0801-14.1113 57.0801-15.2344L57.0801-33.3008L75.293-33.3008C76.416-33.3008 77.2949-34.1309 77.2949-35.1562C77.2949-36.2793 76.5137-37.1094 75.293-37.1094L57.0801-37.1094L57.0801-55.3223C57.0801-56.4941 56.3477-57.3242 55.127-57.3242C54.0527-57.3242 53.3203-56.4941 53.3203-55.3223L53.3203-37.1094L35.1074-37.1094C33.9355-37.1094 33.1055-36.2793 33.1055-35.1562C33.1055-34.1309 33.9844-33.3008 35.1074-33.3008L53.3203-33.3008L53.3203-15.2344C53.3203-14.1113 54.0527-13.2812 55.127-13.2812Z"/>
  </g>
  <g id="Ultralight-M" transform="matrix(1 0 0 1 505.195 1126)">
   <path d="M91.6992-72.2656C88.0371-75.8301 83.2031-77.1973 73.3398-77.1973L35.0586-77.1973C25.9766-77.1973 20.9961-75.7812 17.4316-72.168C13.8184-68.6035 12.4512-63.7695 12.4512-54.5898L12.4512-16.3086C12.4512-6.39648 13.7695-1.5625 17.3828 1.95312C20.9961 5.56641 25.8301 6.93359 35.6934 6.93359L73.3398 6.93359C83.2031 6.93359 88.0859 5.56641 91.6992 1.95312C95.2637-1.61133 96.582-6.39648 96.582-16.3086L96.582-53.9551C96.582-63.916 95.2637-68.7012 91.6992-72.2656ZM94.1895-55.2246L94.1895-15.0879C94.1895-7.8125 92.8223-2.92969 89.8438 0.0976562C86.7676 3.22266 81.7871 4.54102 74.6094 4.54102L34.4727 4.54102C27.2461 4.54102 22.2656 3.17383 19.2383 0.0976562C16.1621-2.92969 14.8438-7.8125 14.8438-15.0879L14.8438-54.5898C14.8438-62.3535 16.1621-67.3828 19.1406-70.459C22.2168-73.584 27.3926-74.8047 35.1074-74.8047L74.6094-74.8047C81.7871-74.8047 86.7676-73.4375 89.8438-70.3613C92.8711-67.334 94.1895-62.4512 94.1895-55.2246ZM54.4922-13.2812C55.2734-13.2812 55.8105-13.8184 55.8105-14.4531L55.8105-33.9355L75.1953-33.9355C75.8789-33.9355 76.4648-34.5703 76.4648-35.1562C76.4648-35.8398 75.9277-36.4746 75.1953-36.4746L55.8105-36.4746L55.8105-55.8594C55.8105-56.5918 55.2734-57.1289 54.4922-57.1289C53.8086-57.1289 53.2715-56.5918 53.2715-55.8594L53.2715-36.4746L33.8379-36.4746C33.1543-36.4746 32.6172-35.8398 32.6172-35.1562C32.6172-34.5703 33.2031-33.9355 33.8379-33.9355L53.2715-33.9355L53.2715-14.4531C53.2715-13.8184 53.8086-13.2812 54.4922-13.2812Z"/>
  </g>
  <g id="Black-S" transform="matrix(1 0 0 1 2885.99 696)">
   <path d="M79.541-67.2852C75.4395-71.3379 70.2637-72.8516 61.1328-72.8516L33.6914-72.8516C24.5605-72.8516 19.3359-71.3379 15.2832-67.2852C11.2305-63.2324 9.76562-58.1543 9.76562-48.9258L9.76562-21.4844C9.76562-12.2559 11.2305-7.12891 15.2832-3.125C19.3848 0.927734 24.5605 2.44141 33.6914 2.44141L61.1328 2.44141C70.2637 2.44141 75.4883 0.927734 79.541-3.125C83.5938-7.17773 85.0586-12.2559 85.0586-21.4844L85.0586-48.9258C85.0586-58.1543 83.5938-63.2812 79.541-67.2852ZM70.8984-50L70.8984-20.4102C70.8984-16.2109 70.3125-14.7461 69.1406-13.5254C67.9199-12.3535 66.3574-11.7188 62.207-11.7188L32.6172-11.7188C28.4668-11.7188 26.9043-12.3535 25.6836-13.5254C24.5117-14.7461 23.9258-16.2109 23.9258-20.4102L23.9258-50C23.9258-54.1992 24.5117-55.6641 25.6836-56.8848C26.9043-58.0566 28.4668-58.6914 32.6172-58.6914L62.207-58.6914C66.3574-58.6914 67.9199-58.0566 69.1406-56.8848C70.3125-55.6641 70.8984-54.1992 70.8984-50ZM47.4121-18.2617C50.4883-18.2617 52.832-20.5078 52.832-23.4863L52.832-29.7363L59.5703-29.7363C62.5488-29.7363 64.7949-32.0801 64.7949-35.1562C64.7949-38.2324 62.5488-40.5762 59.5703-40.5762L52.832-40.5762L52.832-46.8262C52.832-49.8047 50.4883-52.0508 47.4121-52.0508C44.3359-52.0508 41.9922-49.8047 41.9922-46.8262L41.9922-40.5762L35.2539-40.5762C32.2754-40.5762 30.0293-38.2324 30.0293-35.1562C30.0293-32.0801 32.2754-29.7363 35.2539-29.7363L41.9922-29.7363L41.9922-23.4863C41.9922-20.5078 44.3359-18.2617 47.4121-18.2617Z"/>
  </g>
  <g id="Heavy-S" transform="matrix(1 0 0 1 2589.72 696)">
   <path d="M78.8574-66.9922C74.7559-71.0938 69.4336-72.3633 60.9375-72.3633L32.959-72.3633C24.5117-72.3633 19.1406-71.0938 15.0879-66.9922C10.9863-62.9395 9.76562-57.666 9.76562-49.1699L9.76562-21.2402C9.76562-12.6953 10.9863-7.42188 15.0879-3.41797C19.1895 0.683594 24.5117 1.95312 32.959 1.95312L60.9375 1.95312C69.4336 1.95312 74.8047 0.683594 78.8574-3.41797C82.9102-7.4707 84.1797-12.6953 84.1797-21.2402L84.1797-49.1699C84.1797-57.666 82.9102-62.9883 78.8574-66.9922ZM71.6797-50.2441L71.6797-20.166C71.6797-16.1133 71.1426-14.0137 69.7266-12.5488C68.2129-11.1328 66.0645-10.5469 62.0117-10.5469L31.8848-10.5469C27.8809-10.5469 25.6836-11.1328 24.2188-12.5488C22.8027-14.0137 22.2656-16.1133 22.2656-20.166L22.2656-50.2441C22.2656-54.2969 22.8027-56.3965 24.2188-57.8613C25.6836-59.2773 27.8809-59.8633 31.8848-59.8633L62.0117-59.8633C66.0645-59.8633 68.2129-59.2773 69.7266-57.8613C71.1426-56.3965 71.6797-54.2969 71.6797-50.2441ZM46.9727-18.2129C49.8535-18.2129 51.9531-20.3125 51.9531-23.1934L51.9531-30.1758L59.5215-30.1758C62.3535-30.1758 64.502-32.2754 64.502-35.1562C64.502-38.0859 62.4023-40.1855 59.5215-40.1855L51.9531-40.1855L51.9531-47.3633C51.9531-50.2441 49.8535-52.3438 46.9727-52.3438C44.043-52.3438 41.9434-50.2441 41.9434-47.3633L41.9434-40.1855L34.4238-40.1855C31.543-40.1855 29.4434-38.0859 29.4434-35.1562C29.4434-32.2754 31.543-30.1758 34.4238-30.1758L41.9434-30.1758L41.9434-23.1934C41.9434-20.3613 44.043-18.2129 46.9727-18.2129Z"/>
  </g>
  <g id="Bold-S" transform="matrix(1 0 0 1 2293.52 696)">
   <path d="M78.0762-66.6992C73.9746-70.8008 68.457-71.8262 60.7422-71.8262L32.1289-71.8262C24.4629-71.8262 18.8965-70.8008 14.8438-66.6992C10.7422-62.5977 9.76562-57.1777 9.76562-49.4141L9.76562-20.9961C9.76562-13.2324 10.7422-7.76367 14.8438-3.71094C18.9453 0.390625 24.4629 1.41602 32.1777 1.41602L60.7422 1.41602C68.457 1.41602 74.0234 0.390625 78.0762-3.71094C82.1777-7.8125 83.1543-13.2324 83.1543-20.9961L83.1543-49.4141C83.1543-57.1777 82.1777-62.6465 78.0762-66.6992ZM72.5586-50.4883L72.5586-19.9219C72.5586-16.0156 72.0703-13.2324 70.3125-11.4746C68.5547-9.7168 65.6738-9.22852 61.8164-9.22852L31.1035-9.22852C27.1973-9.22852 24.3652-9.7168 22.6074-11.4746C20.8496-13.2324 20.3613-16.0156 20.3613-19.9219L20.3613-50.4883C20.3613-54.3945 20.8496-57.1777 22.6074-58.9355C24.3652-60.6934 27.1973-61.1816 31.1035-61.1816L61.8164-61.1816C65.6738-61.1816 68.5547-60.6934 70.3125-58.9355C72.0703-57.1777 72.5586-54.3945 72.5586-50.4883ZM46.4355-18.1641C49.1211-18.1641 50.9766-20.1172 50.9766-22.9004L50.9766-30.6641L59.4238-30.6641C62.1582-30.6641 64.1113-32.4707 64.1113-35.1562C64.1113-37.8906 62.207-39.7461 59.4238-39.7461L50.9766-39.7461L50.9766-47.9492C50.9766-50.7324 49.1211-52.6855 46.4355-52.6855C43.7012-52.6855 41.8945-50.6836 41.8945-47.9492L41.8945-39.7461L33.4961-39.7461C30.7129-39.7461 28.7598-37.8906 28.7598-35.1562C28.7598-32.4707 30.7617-30.6641 33.4961-30.6641L41.8945-30.6641L41.8945-22.9004C41.8945-20.166 43.7012-18.1641 46.4355-18.1641Z"/>
  </g>
  <g id="Semibold-S" transform="matrix(1 0 0 1 1997.15 696)">
   <path d="M77.5879-66.5039C73.4375-70.6055 67.8223-71.4355 60.6445-71.4355L31.5918-71.4355C24.4141-71.4355 18.75-70.6055 14.6484-66.5039C10.5469-62.3535 9.76562-56.7871 9.76562-49.6094L9.76562-20.8008C9.76562-13.5742 10.5469-8.00781 14.6484-3.90625C18.7988 0.195312 24.4141 1.02539 31.5918 1.02539L60.6445 1.02539C67.8223 1.02539 73.4375 0.195312 77.5879-3.90625C81.6895-8.00781 82.4707-13.5742 82.4707-20.8008L82.4707-49.6094C82.4707-56.8359 81.6895-62.4023 77.5879-66.5039ZM73.1445-50.6836L73.1445-19.7266C73.1445-15.9668 72.7051-12.6953 70.752-10.7422C68.7988-8.78906 65.4785-8.30078 61.7188-8.30078L30.5176-8.30078C26.7578-8.30078 23.3887-8.78906 21.4355-10.7422C19.5312-12.6953 19.0918-15.9668 19.0918-19.7266L19.0918-50.6348C19.0918-54.4434 19.5312-57.7148 21.4355-59.668C23.3887-61.6211 26.7578-62.1094 30.5664-62.1094L61.7188-62.1094C65.4785-62.1094 68.7988-61.6211 70.752-59.668C72.7051-57.7148 73.1445-54.4434 73.1445-50.6836ZM46.0938-18.1641C48.6328-18.1641 50.3418-19.9707 50.3418-22.6562L50.3418-31.0059L59.375-31.0059C62.0117-31.0059 63.916-32.6172 63.916-35.2051C63.916-37.793 62.1094-39.4531 59.375-39.4531L50.3418-39.4531L50.3418-48.3887C50.3418-51.0742 48.6328-52.8809 46.0938-52.8809C43.5059-52.8809 41.8945-51.0254 41.8945-48.3887L41.8945-39.4531L32.8613-39.4531C30.1758-39.4531 28.3203-37.793 28.3203-35.2051C28.3203-32.6172 30.2246-31.0059 32.8613-31.0059L41.8945-31.0059L41.8945-22.6562C41.8945-20.0195 43.5059-18.1641 46.0938-18.1641Z"/>
  </g>
  <g id="Medium-S" transform="matrix(1 0 0 1 1700.71 696)">
   <path d="M77.1484-66.3086C73.0469-70.4102 67.334-71.1426 60.498-71.1426L31.1523-71.1426C24.3652-71.1426 18.6523-70.4102 14.5508-66.3086C10.4004-62.207 9.76562-56.543 9.76562-49.7559L9.76562-20.7031C9.76562-13.8672 10.4004-8.20312 14.5508-4.10156C18.6523 0.0488281 24.3652 0.732422 31.1523 0.732422L60.498 0.732422C67.334 0.732422 73.0469 0.0488281 77.1484-4.10156C81.2988-8.20312 81.9336-13.8672 81.9336-20.7031L81.9336-49.707C81.9336-56.543 81.2988-62.207 77.1484-66.3086ZM73.584-50.7812L73.584-19.6289C73.584-15.918 73.1934-12.2559 71.0938-10.1562C68.9941-8.05664 65.2832-7.61719 61.5723-7.61719L30.0781-7.61719C26.416-7.61719 22.7051-8.05664 20.6055-10.1562C18.5059-12.2559 18.0664-15.918 18.0664-19.6289L18.0664-50.7812C18.0664-54.4922 18.5059-58.1543 20.6055-60.2539C22.7051-62.3535 26.416-62.793 30.127-62.793L61.5723-62.793C65.2832-62.793 68.9941-62.3535 71.0938-60.2539C73.1934-58.1543 73.584-54.4922 73.584-50.7812ZM45.8008-18.1152C48.291-18.1152 49.8047-19.873 49.8047-22.5098L49.8047-31.25L59.375-31.25C61.9141-31.25 63.7207-32.7148 63.7207-35.2051C63.7207-37.6953 62.0117-39.209 59.375-39.209L49.8047-39.209L49.8047-48.6816C49.8047-51.3184 48.291-53.0762 45.8008-53.0762C43.3105-53.0762 41.8457-51.2695 41.8457-48.6816L41.8457-39.209L32.373-39.209C29.7363-39.209 27.9785-37.6953 27.9785-35.2051C27.9785-32.7148 29.7852-31.25 32.373-31.25L41.8457-31.25L41.8457-22.5098C41.8457-19.9219 43.3105-18.1152 45.8008-18.1152Z"/>
  </g>
  <g id="Regular-S" transform="matrix(1 0 0 1 1404.34 696)">
   <path d="M76.6602-66.1133C72.5098-70.2148 66.6504-70.752 60.4004-70.752L30.6152-70.752C24.3652-70.752 18.5059-70.2148 14.3555-66.1133C10.2539-61.9629 9.76562-56.2012 9.76562-49.9512L9.76562-20.5078C9.76562-14.209 10.2539-8.39844 14.3555-4.29688C18.5059-0.146484 24.3164 0.341797 30.6152 0.341797L60.4004 0.341797C66.6504 0.341797 72.5098-0.146484 76.6602-4.29688C80.7617-8.44727 81.25-14.209 81.25-20.5078L81.25-49.9023C81.25-56.2012 80.7617-61.9629 76.6602-66.1133ZM74.2188-50.9766L74.2188-19.4336C74.2188-15.8691 73.8281-11.7188 71.5332-9.42383C69.2383-7.12891 65.0391-6.68945 61.4746-6.68945L29.541-6.68945C25.9766-6.68945 21.7773-7.12891 19.4824-9.42383C17.1875-11.7188 16.7969-15.8691 16.7969-19.4336L16.7969-50.9277C16.7969-54.541 17.1875-58.6914 19.4824-60.9863C21.7773-63.2812 25.9766-63.7207 29.5898-63.7207L61.4746-63.7207C65.0391-63.7207 69.2383-63.2812 71.5332-60.9863C73.8281-58.6914 74.2188-54.541 74.2188-50.9766ZM45.459-18.1152C47.8027-18.1152 49.1699-19.7266 49.1699-22.2656L49.1699-31.5918L59.3262-31.5918C61.7676-31.5918 63.4766-32.8613 63.4766-35.2051C63.4766-37.5977 61.8652-38.916 59.3262-38.916L49.1699-38.916L49.1699-49.1211C49.1699-51.6602 47.8027-53.2715 45.459-53.2715C43.1152-53.2715 41.8457-51.5625 41.8457-49.1211L41.8457-38.916L31.7383-38.916C29.1504-38.916 27.5391-37.5977 27.5391-35.2051C27.5391-32.8613 29.248-31.5918 31.7383-31.5918L41.8457-31.5918L41.8457-22.2656C41.8457-19.7754 43.1152-18.1152 45.459-18.1152Z"/>
  </g>
  <g id="Light-S" transform="matrix(1 0 0 1 1108.5 696)">
   <path d="M75.1465-65.5273C71.4355-69.2383 66.2109-69.9219 59.4727-69.9219L29.6387-69.9219C23.0957-69.9219 17.8711-69.2383 14.1602-65.5273C10.4492-61.7676 9.76562-56.6406 9.76562-50.0977L9.76562-20.459C9.76562-13.7207 10.4004-8.54492 14.1113-4.83398C17.8711-1.12305 23.0469-0.439453 29.7852-0.439453L59.4727-0.439453C66.2109-0.439453 71.4355-1.12305 75.1465-4.83398C78.8574-8.59375 79.4922-13.7207 79.4922-20.459L79.4922-49.9023C79.4922-56.6406 78.8574-61.8164 75.1465-65.5273ZM74.0723-50.9277L74.0723-19.4336C74.0723-15.1855 73.4863-11.1816 71.1914-8.83789C68.8477-6.49414 64.7461-5.85938 60.498-5.85938L28.7598-5.85938C24.5117-5.85938 20.459-6.49414 18.1152-8.83789C15.7715-11.1816 15.1855-15.1855 15.1855-19.4336L15.1855-50.7812C15.1855-55.127 15.7715-59.2285 18.0664-61.5723C20.4102-63.916 24.5605-64.502 28.9062-64.502L60.498-64.502C64.7461-64.502 68.8477-63.8672 71.1914-61.5234C73.4863-59.2285 74.0723-55.1758 74.0723-50.9277ZM44.5801-18.0664C46.3867-18.0664 47.4609-19.2871 47.4609-21.2402L47.4609-32.4219L59.1797-32.4219C61.0352-32.4219 62.3535-33.4473 62.3535-35.2051C62.3535-37.0117 61.1328-38.0859 59.1797-38.0859L47.4609-38.0859L47.4609-49.8047C47.4609-51.7578 46.3867-52.9785 44.5801-52.9785C42.8223-52.9785 41.7969-51.709 41.7969-49.8047L41.7969-38.0859L30.127-38.0859C28.1738-38.0859 26.9043-37.0117 26.9043-35.2051C26.9043-33.4473 28.2227-32.4219 30.127-32.4219L41.7969-32.4219L41.7969-21.2402C41.7969-19.3848 42.8223-18.0664 44.5801-18.0664Z"/>
  </g>
  <g id="Thin-S" transform="matrix(1 0 0 1 812.916 696)">
   <path d="M73.1934-64.7461C69.9707-67.9199 65.625-68.8477 58.3008-68.8477L28.3691-68.8477C21.4355-68.8477 17.041-67.8711 13.8672-64.6973C10.6934-61.5234 9.76562-57.1777 9.76562-50.2441L9.76562-20.459C9.76562-13.0859 10.6445-8.74023 13.8184-5.56641C17.041-2.39258 21.3867-1.46484 28.7109-1.46484L58.3008-1.46484C65.625-1.46484 70.0195-2.39258 73.1934-5.56641C76.3672-8.74023 77.2461-13.0859 77.2461-20.459L77.2461-49.9023C77.2461-57.2754 76.3672-61.6211 73.1934-64.7461ZM73.9258-50.9277L73.9258-19.4336C73.9258-14.3066 73.0469-10.4492 70.7031-8.05664C68.3594-5.66406 64.3555-4.78516 59.2773-4.78516L27.7344-4.78516C22.6562-4.78516 18.6523-5.71289 16.3086-8.05664C13.916-10.4492 13.0859-14.3066 13.0859-19.4336L13.0859-50.5371C13.0859-55.957 13.916-59.9609 16.2598-62.3047C18.6035-64.6973 22.7051-65.5273 28.0762-65.5273L59.2773-65.5273C64.3555-65.5273 68.3594-64.6484 70.7031-62.2559C73.0957-59.9121 73.9258-56.0059 73.9258-50.9277ZM43.4082-18.0664C44.5312-18.0664 45.2148-18.7988 45.2148-19.873L45.2148-33.4961L59.0332-33.4961C60.0586-33.4961 60.8887-34.1797 60.8887-35.1562C60.8887-36.2305 60.1074-36.9629 59.0332-36.9629L45.2148-36.9629L45.2148-50.7812C45.2148-51.8555 44.5312-52.6367 43.4082-52.6367C42.4316-52.6367 41.748-51.8555 41.748-50.7812L41.748-36.9629L27.9297-36.9629C26.8555-36.9629 26.0742-36.2305 26.0742-35.1562C26.0742-34.1797 26.9043-33.4961 27.9297-33.4961L41.748-33.4961L41.748-19.873C41.748-18.7988 42.4316-18.0664 43.4082-18.0664Z"/>
  </g>
  <g id="Ultralight-S" transform="matrix(1 0 0 1 516.791 696)">
   <path d="M72.168-64.3555C69.2383-67.2363 65.2832-68.3105 57.666-68.3105L27.6855-68.3105C20.6055-68.3105 16.6016-67.1875 13.7207-64.3066C10.791-61.4258 9.76562-57.5195 9.76562-50.3906L9.76562-20.4102C9.76562-12.7441 10.7422-8.83789 13.6719-5.95703C16.6016-3.07617 20.5078-2.00195 28.1738-2.00195L57.666-2.00195C65.2832-2.00195 69.2383-3.07617 72.168-5.95703C75.0488-8.88672 76.0742-12.7441 76.0742-20.4102L76.0742-49.9023C76.0742-57.6172 75.0488-61.5234 72.168-64.3555ZM73.8281-50.8789L73.8281-19.4336C73.8281-13.8672 72.8027-10.0586 70.459-7.66602C68.0664-5.22461 64.1602-4.24805 58.6426-4.24805L27.1973-4.24805C21.6797-4.24805 17.7246-5.27344 15.332-7.66602C12.9395-10.0586 11.9629-13.8672 11.9629-19.4336L11.9629-50.4395C11.9629-56.3477 12.9395-60.3027 15.2832-62.6953C17.6758-65.1367 21.7285-66.0645 27.6367-66.0645L58.6426-66.0645C64.1602-66.0645 68.0664-65.0391 70.459-62.6465C72.8516-60.2539 73.8281-56.4453 73.8281-50.8789ZM42.8223-18.0176C43.5547-18.0176 44.043-18.5059 44.043-19.1406L44.043-34.0332L58.9355-34.0332C59.5703-34.0332 60.1074-34.5703 60.1074-35.1562C60.1074-35.8398 59.6191-36.377 58.9355-36.377L44.043-36.377L44.043-51.2695C44.043-51.9531 43.5547-52.4414 42.8223-52.4414C42.2363-52.4414 41.748-51.9531 41.748-51.2695L41.748-36.377L26.8555-36.377C26.1719-36.377 25.6836-35.8398 25.6836-35.1562C25.6836-34.5703 26.2207-34.0332 26.8555-34.0332L41.748-34.0332L41.748-19.1406C41.748-18.5059 42.2363-18.0176 42.8223-18.0176Z"/>
  </g>
 </g>
</svg>
